<?xml version="1.0" standalone="no"?>
<!DOCTYPE svg PUBLIC "-//W3C//DTD SVG 20010904//EN"
 "http://www.w3.org/TR/2001/REC-SVG-20010904/DTD/svg10.dtd">
<svg version="1.0" xmlns="http://www.w3.org/2000/svg"
 width="1024.000000pt" height="1024.000000pt" viewBox="0 0 1024.000000 1024.000000"
 preserveAspectRatio="xMidYMid meet">
<metadata>
Created by potrace 1.14, written by Peter Selinger 2001-2017
</metadata>
<g transform="translate(0.000000,1024.000000) scale(0.100000,-0.100000)"
fill="#000000" stroke="none">
<path d="M5380 9960 c-10 -6 -4 -8 18 -8 18 1 32 4 32 7 0 10 -35 11 -50 1z"/>
<path d="M5456 9958 c3 -4 11 -5 19 -1 21 7 19 12 -4 10 -11 0 -18 -5 -15 -9z"/>
<path d="M5500 9959 c0 -5 5 -7 10 -4 6 3 10 8 10 11 0 2 -4 4 -10 4 -5 0 -10
-5 -10 -11z"/>
<path d="M5556 9958 c3 -5 10 -6 15 -3 13 9 11 12 -6 12 -8 0 -12 -4 -9 -9z"/>
<path d="M5328 9954 c-2 -1 -21 -4 -43 -8 -22 -3 -55 -10 -72 -15 -18 -5 -33
-8 -33 -6 0 2 -25 -5 -56 -16 -30 -11 -59 -17 -63 -14 -5 2 -14 -2 -21 -10 -7
-8 -16 -12 -21 -9 -5 3 -9 0 -9 -7 0 -7 -10 -9 -25 -7 -14 3 -23 1 -22 -6 1
-6 -11 -10 -26 -10 -22 1 -27 -2 -23 -15 5 -13 4 -13 -8 2 -7 9 -17 17 -23 17
-15 0 -63 24 -63 32 0 4 -7 5 -15 2 -8 -4 -15 -1 -15 7 0 7 -3 9 -6 6 -4 -3
-15 -2 -25 3 -12 7 -20 7 -24 0 -3 -5 -11 -10 -17 -10 -7 0 -6 5 1 14 8 10 9
16 1 21 -5 3 -10 1 -10 -4 0 -15 -27 -14 -33 2 -4 10 -6 10 -6 0 -1 -7 -6 -13
-12 -13 -5 0 -7 5 -3 12 4 6 -3 4 -16 -5 -22 -15 -25 -15 -44 1 -11 9 -17 12
-13 6 4 -7 -5 -11 -23 -12 -17 0 -30 5 -30 11 0 7 -4 6 -10 -3 -8 -12 -10 -12
-10 -1 0 11 -3 11 -15 1 -12 -10 -15 -10 -15 0 0 9 -3 10 -13 1 -10 -7 -17 -7
-24 0 -8 8 -13 8 -17 0 -5 -7 -16 -5 -34 7 -14 9 -23 12 -19 5 4 -6 1 -13 -5
-16 -19 -6 -49 4 -42 14 3 5 0 9 -5 9 -6 0 -11 -5 -11 -11 0 -8 -6 -7 -17 2
-9 8 -14 9 -10 3 6 -11 1 -11 -70 0 -13 2 -23 -1 -23 -7 0 -5 -8 -3 -17 4 -11
10 -14 10 -9 2 9 -16 1 -16 -25 -3 -15 9 -21 7 -25 -5 -6 -14 -8 -14 -21 2 -8
10 -11 12 -7 4 5 -11 3 -13 -9 -8 -10 4 -17 1 -17 -6 0 -8 -4 -6 -10 3 -9 13
-10 13 -10 0 0 -13 -1 -13 -10 0 -5 8 -10 10 -10 5 0 -6 -11 -12 -26 -13 -14
-1 -35 -7 -47 -14 -21 -11 -21 -10 -7 8 15 18 14 18 -14 0 -18 -11 -25 -13
-20 -5 6 11 3 10 -10 -1 -23 -18 -46 -22 -46 -7 0 7 -5 4 -11 -6 -8 -14 -14
-16 -25 -6 -12 10 -13 9 -8 -6 6 -14 3 -16 -15 -10 -14 4 -23 2 -27 -9 -3 -9
-10 -13 -15 -10 -6 3 -16 0 -24 -6 -12 -10 -15 -10 -15 1 0 10 -3 9 -12 -2
-17 -20 -58 -37 -81 -33 -15 2 -16 0 -5 -14 7 -9 8 -14 4 -10 -5 4 -15 3 -23
-3 -7 -6 -22 -9 -32 -6 -14 3 -18 1 -14 -9 4 -10 0 -12 -11 -8 -11 4 -16 1
-16 -11 0 -9 -5 -13 -10 -10 -6 4 -7 11 -4 17 5 7 2 8 -5 4 -7 -5 -10 -11 -7
-14 9 -9 -15 -32 -27 -25 -6 4 -8 0 -4 -10 4 -12 1 -15 -14 -12 -17 4 -19 2
-8 -11 9 -12 9 -13 -2 -9 -8 3 -24 -4 -36 -15 -12 -11 -27 -20 -33 -20 -5 0
-9 -3 -8 -8 3 -7 -48 -67 -111 -128 -32 -32 -44 -38 -64 -35 -5 1 -6 -3 -2 -9
3 -5 1 -10 -6 -10 -7 0 -9 -3 -6 -6 4 -4 13 -1 22 6 8 7 15 9 15 4 0 -4 7 1
16 12 15 18 15 18 4 -3 -5 -12 -19 -28 -31 -36 -13 -10 -16 -16 -8 -19 8 -3 7
-9 -5 -20 -9 -9 -16 -24 -16 -32 0 -9 -4 -16 -10 -16 -5 0 -10 -4 -10 -9 0 -5
-10 -30 -22 -57 -12 -27 -23 -56 -24 -64 -2 -8 -7 -16 -13 -18 -5 -2 -8 -9 -5
-17 3 -7 1 -16 -5 -19 -6 -4 -8 -13 -4 -21 3 -8 0 -15 -7 -15 -6 0 -9 -4 -6
-9 7 -10 -18 -74 -25 -67 -5 5 -7 -6 -12 -54 -1 -14 -5 -27 -8 -30 -11 -10
-25 -66 -24 -97 0 -18 -3 -33 -8 -33 -4 0 -5 -6 0 -12 10 -16 11 -100 1 -90
-4 4 -10 30 -13 57 -4 28 -9 53 -12 58 -2 4 0 7 5 7 5 0 8 10 7 23 -1 12 2 28
8 35 8 10 7 16 -4 23 -12 8 -6 13 13 10 14 -2 -4 28 -20 34 -9 3 -13 3 -9 -1
4 -4 1 -14 -6 -22 -9 -12 -9 -16 1 -19 6 -3 9 -10 5 -16 -4 -7 -9 -23 -10 -37
-1 -14 -4 -40 -6 -57 -2 -18 -1 -33 2 -33 3 0 6 -19 5 -42 0 -24 4 -49 10 -57
9 -12 8 -13 -4 -6 -12 7 -13 6 -3 -6 10 -12 10 -18 0 -29 -9 -10 -9 -11 1 -6
12 7 13 4 15 -36 2 -38 -19 -30 -32 13 -19 64 -22 77 -28 163 -5 66 -4 78 8
71 11 -7 12 -6 3 6 -15 19 -15 102 0 111 8 6 7 8 -2 8 -7 0 -10 4 -7 10 3 5 8
24 10 42 2 18 6 44 9 58 3 14 9 40 12 59 4 18 17 63 30 98 13 36 21 70 17 76
-3 6 -1 7 5 3 6 -3 21 4 33 16 12 13 19 18 15 11 -3 -6 -2 -15 4 -18 6 -4 10
-3 9 2 -3 18 1 36 7 30 4 -3 15 5 26 18 11 14 24 23 29 20 5 -4 9 1 9 11 0 15
-2 15 -22 0 -13 -9 -34 -22 -48 -28 -14 -7 -28 -17 -32 -23 -5 -6 -8 -5 -8 3
0 8 -9 4 -24 -10 -12 -13 -21 -29 -18 -37 3 -8 1 -12 -4 -8 -6 3 -11 -4 -11
-15 -1 -12 -6 -24 -12 -27 -5 -4 -13 -19 -16 -34 -4 -15 -12 -27 -17 -27 -6 0
-8 -9 -5 -20 3 -11 2 -18 -3 -15 -4 3 -11 -12 -16 -33 -4 -20 -8 -41 -10 -47
-12 -41 -16 -69 -20 -130 -2 -38 -4 -76 -4 -82 0 -24 0 -38 -4 -88 -2 -27 -1
-54 3 -60 6 -11 10 -28 13 -57 1 -10 6 -18 10 -18 4 0 8 -8 8 -18 0 -10 3 -22
8 -26 4 -4 7 -11 7 -14 1 -14 39 -87 49 -94 6 -4 7 -8 2 -8 -4 0 -1 -10 7 -23
13 -20 13 -24 1 -24 -8 0 -14 5 -14 10 0 5 -6 4 -13 -2 -8 -6 -16 -8 -20 -5
-3 3 -17 7 -31 8 -23 3 -24 1 -14 -12 11 -13 11 -14 -1 -7 -24 14 -81 17 -81
3 0 -9 -3 -9 -12 0 -14 14 -32 16 -23 3 3 -5 1 -12 -5 -16 -5 -3 -10 -1 -10 5
0 7 -6 8 -19 0 -14 -7 -21 -6 -25 3 -4 6 -4 2 -2 -10 3 -19 1 -21 -14 -13 -20
11 -53 3 -45 -11 3 -4 12 -6 19 -3 8 3 16 1 20 -4 8 -13 -30 -8 -47 6 -12 10
-16 9 -21 -3 -3 -9 -10 -13 -16 -10 -5 3 -10 3 -10 -2 0 -4 -19 -17 -41 -28
-22 -10 -47 -28 -55 -39 -8 -11 -14 -16 -14 -12 0 5 -44 -36 -97 -92 -122
-126 -125 -129 -113 -137 6 -3 10 -2 10 2 0 15 57 72 65 65 4 -4 5 -2 4 3 -7
21 161 171 176 157 5 -4 5 1 2 11 -4 10 -3 16 2 12 5 -3 17 3 27 12 10 10 19
17 21 16 6 -5 38 11 45 21 4 6 10 8 13 5 3 -4 -29 -32 -72 -65 -89 -67 -143
-119 -180 -175 -14 -21 -30 -39 -35 -39 -5 0 -7 -4 -3 -9 3 -5 -2 -16 -10 -24
-8 -9 -15 -20 -15 -26 0 -6 -4 -11 -9 -11 -5 0 -12 -10 -16 -22 -4 -13 -8 -25
-10 -28 -1 -3 -5 -14 -9 -25 -4 -11 -12 -31 -17 -44 -7 -18 -7 -26 3 -32 10
-7 9 -9 -4 -9 -11 0 -16 -6 -13 -20 2 -11 1 -20 -3 -20 -4 0 -8 -10 -8 -22 -3
-39 -14 -100 -21 -111 -12 -19 -12 -77 1 -77 6 0 6 -4 -3 -9 -9 -6 -12 -20 -9
-40 3 -17 0 -31 -6 -31 -6 0 -6 -4 2 -12 6 -6 8 -18 3 -27 -4 -9 -7 -44 -7
-78 1 -34 -1 -60 -5 -58 -3 2 -6 -2 -6 -10 0 -8 3 -15 6 -15 3 0 6 -11 6 -24
0 -13 -3 -22 -7 -19 -5 2 -8 0 -8 -6 0 -5 5 -13 10 -16 6 -4 7 -12 3 -18 -10
-17 -11 -47 -1 -53 4 -3 8 -10 8 -15 0 -6 -4 -8 -8 -5 -5 3 -9 -1 -9 -9 0 -8
5 -15 11 -15 6 0 4 -5 -4 -10 -8 -5 -10 -10 -4 -10 7 0 15 -7 18 -16 3 -9 2
-12 -5 -9 -13 9 -8 -27 6 -37 6 -5 4 -8 -5 -8 -13 0 -13 -1 0 -10 9 -6 11 -10
3 -10 -7 0 -10 -7 -6 -16 5 -13 7 -13 14 -2 6 9 9 9 9 1 0 -6 -4 -15 -10 -18
-5 -3 -9 -17 -8 -30 1 -13 6 -21 10 -19 4 3 7 -3 6 -13 -3 -37 2 -53 18 -53 9
0 12 5 8 12 -10 17 -11 68 0 68 5 0 3 7 -4 15 -10 12 -9 15 4 15 16 0 16 2 2
15 -8 9 -13 22 -10 30 11 27 43 -28 48 -81 2 -27 5 -49 6 -49 1 0 3 -9 5 -20
5 -25 18 -87 20 -97 2 -5 3 -15 4 -24 0 -9 6 -12 13 -8 7 4 8 3 4 -5 -4 -6 -2
-19 6 -28 11 -14 11 -16 -2 -9 -13 7 -13 6 0 -6 15 -13 21 -28 25 -61 1 -10 8
-26 16 -35 8 -9 15 -25 15 -34 3 -35 4 -39 12 -34 4 2 9 -7 10 -21 1 -14 8
-33 15 -41 9 -13 9 -14 0 -8 -7 4 -13 2 -13 -3 0 -6 7 -11 15 -11 8 0 15 -5
15 -11 0 -16 31 -81 47 -101 13 -14 19 -33 22 -60 1 -5 7 -8 15 -8 8 0 13 -8
12 -17 -2 -10 3 -24 11 -31 7 -8 11 -18 8 -23 -4 -5 -1 -9 6 -9 7 0 9 -3 6 -7
-4 -3 1 -15 10 -26 11 -13 12 -17 4 -12 -11 6 -13 4 -7 -11 5 -10 9 -25 9 -31
0 -7 4 -13 9 -13 5 0 6 -5 3 -10 -4 -6 -1 -18 7 -27 9 -12 9 -15 1 -9 -7 4
-13 2 -13 -3 0 -6 4 -11 9 -11 7 0 23 -67 20 -86 0 -4 5 -11 13 -15 10 -7 10
-9 -2 -9 -13 0 -13 -2 -1 -9 22 -14 20 -51 -3 -64 -12 -6 -24 -10 -28 -9 -5 1
-8 -3 -8 -9 0 -5 -4 -8 -8 -5 -5 3 -16 -6 -26 -19 -10 -14 -23 -22 -29 -18 -6
4 -8 0 -4 -11 4 -11 3 -15 -4 -11 -6 4 -13 -2 -16 -14 -3 -12 -9 -21 -13 -21
-10 0 -41 -65 -43 -90 -1 -11 -4 -20 -7 -20 -19 0 -16 -391 4 -440 3 -8 8 -28
10 -45 4 -33 15 -82 23 -105 3 -8 7 -20 9 -27 8 -42 37 -113 45 -113 6 0 8 -4
5 -9 -3 -4 4 -25 14 -47 11 -21 20 -44 20 -52 0 -7 5 -10 10 -7 6 3 10 -3 10
-14 0 -11 8 -25 18 -30 9 -6 13 -11 8 -11 -5 0 -1 -9 9 -20 10 -11 15 -20 11
-20 -4 0 -1 -6 6 -14 7 -8 24 -31 38 -51 14 -21 33 -46 43 -56 9 -10 15 -19
12 -19 -3 0 0 -6 7 -14 7 -8 17 -11 22 -8 5 3 6 0 2 -6 -9 -15 150 -169 169
-163 4 2 11 -1 14 -6 9 -14 73 -41 111 -49 19 -3 64 -6 100 -5 71 0 67 5 72
-68 1 -17 5 -28 10 -25 5 3 5 10 2 16 -4 7 -2 8 5 4 6 -4 9 -12 6 -17 -4 -5
-2 -9 3 -9 5 0 8 -14 6 -31 -2 -16 0 -28 5 -25 5 3 12 -1 15 -10 3 -8 2 -12
-4 -9 -6 3 -10 -1 -10 -10 0 -11 6 -15 18 -11 13 4 18 1 18 -13 0 -11 -4 -17
-9 -14 -5 3 -3 -4 5 -16 7 -12 16 -21 20 -21 8 0 5 -21 -5 -37 -6 -9 -3 -11 9
-6 12 4 15 3 10 -5 -4 -7 -2 -12 5 -12 9 0 9 -3 -1 -14 -9 -12 -7 -17 9 -28
12 -7 21 -16 21 -21 0 -4 -5 -5 -12 -1 -7 4 -8 3 -4 -5 4 -6 12 -9 17 -6 5 4
9 -1 9 -9 0 -8 9 -21 20 -29 13 -9 18 -20 14 -31 -4 -11 -2 -16 7 -14 8 2 13
-3 12 -9 -2 -7 2 -13 7 -13 6 0 10 -5 10 -11 0 -5 -5 -7 -12 -3 -7 4 -8 3 -4
-5 4 -6 12 -9 17 -6 8 6 13 -8 10 -28 -1 -4 8 -3 20 4 15 8 19 8 15 0 -13 -20
3 -51 22 -44 15 6 15 5 3 -10 -12 -15 -12 -17 2 -12 10 4 24 -6 41 -28 14 -19
26 -37 26 -41 0 -13 28 -35 35 -28 5 4 5 -1 2 -11 -4 -9 -2 -17 3 -17 6 0 10
6 11 13 0 6 4 2 9 -11 5 -12 16 -22 24 -22 9 0 13 -7 11 -19 -3 -14 1 -18 11
-14 9 3 14 -1 14 -12 0 -9 5 -13 10 -10 6 3 10 1 10 -4 0 -6 6 -10 13 -8 6 1
11 -3 10 -10 -2 -6 6 -15 17 -18 11 -4 20 -14 21 -23 0 -14 2 -13 9 3 7 17 9
16 9 -10 1 -23 4 -27 11 -15 9 13 14 7 11 -12 0 -5 4 -8 9 -8 19 0 71 -54 65
-68 -3 -10 0 -12 10 -8 14 5 20 -15 16 -51 -1 -7 3 -13 9 -13 8 0 8 -6 0 -20
-6 -11 -7 -20 -2 -20 5 0 7 -15 6 -32 -1 -18 -3 -41 -3 -51 -1 -10 -18 -35
-38 -56 -58 -59 -102 -111 -95 -111 4 -1 -4 -10 -17 -20 -13 -11 -20 -20 -17
-20 4 0 1 -10 -6 -23 -7 -12 -11 -28 -9 -36 1 -7 -2 -10 -8 -6 -10 5 -15 -7
-12 -27 0 -5 -4 -8 -10 -8 -5 0 -8 -4 -4 -9 3 -5 0 -13 -6 -16 -5 -4 -8 -14
-5 -22 3 -8 1 -11 -4 -8 -6 3 -10 -3 -10 -14 0 -12 -5 -21 -11 -21 -5 0 -8 -4
-5 -8 2 -4 -4 -27 -14 -50 -11 -23 -16 -42 -13 -42 3 0 0 -7 -7 -15 -6 -8 -9
-19 -5 -25 3 -5 -1 -13 -9 -16 -9 -3 -14 -10 -11 -14 3 -5 0 -14 -7 -22 -7 -7
-13 -17 -13 -23 -1 -22 -27 -85 -36 -85 -6 0 -8 -4 -5 -8 3 -5 -2 -22 -10 -38
-9 -16 -16 -31 -16 -34 0 -3 -5 -16 -11 -30 -6 -14 -10 -28 -9 -32 1 -5 -3 -8
-9 -8 -5 0 -8 -4 -4 -9 3 -5 0 -13 -6 -16 -5 -4 -8 -13 -5 -21 3 -8 0 -14 -6
-14 -6 0 -9 -3 -5 -6 3 -4 -1 -13 -9 -21 -8 -8 -12 -19 -9 -24 4 -5 2 -9 -3
-9 -6 0 -13 -11 -16 -25 -4 -14 -11 -25 -17 -25 -6 0 -7 -5 -4 -10 3 -5 1 -10
-5 -10 -6 0 -16 -5 -23 -10 -46 -39 -61 -50 -68 -50 -4 0 -14 -6 -21 -13 -7
-6 -31 -21 -53 -32 -22 -11 -46 -26 -53 -33 -8 -7 -18 -10 -23 -7 -5 4 -9 1
-9 -5 0 -6 -5 -8 -10 -5 -5 3 -10 2 -10 -3 0 -5 -28 -21 -62 -37 -35 -15 -71
-35 -80 -43 -10 -8 -18 -12 -18 -8 0 3 -21 -5 -47 -18 -27 -13 -70 -34 -98
-46 -27 -12 -63 -28 -80 -35 -16 -7 -40 -16 -52 -20 -13 -3 -23 -11 -23 -16 0
-6 -4 -7 -10 -4 -5 3 -10 1 -10 -5 0 -6 -5 -8 -10 -5 -6 4 -16 2 -23 -3 -7 -6
-15 -11 -20 -11 -4 0 -24 -8 -44 -16 -20 -8 -38 -13 -41 -11 -2 3 -11 -2 -19
-10 -8 -8 -19 -12 -24 -9 -5 4 -9 2 -9 -2 0 -5 -12 -10 -27 -11 -15 -1 -30 -7
-34 -14 -4 -6 -20 -12 -36 -13 -15 -1 -48 -9 -73 -18 -37 -13 -64 -21 -140
-42 -3 -1 -25 -7 -50 -15 -61 -18 -61 -18 -95 -25 -16 -3 -37 -8 -45 -12 -13
-5 -30 -10 -65 -17 -5 -1 -14 -4 -20 -7 -5 -4 -18 -5 -27 -4 -10 2 -18 0 -18
-4 0 -4 -28 -13 -62 -21 -35 -7 -65 -14 -68 -15 -3 -1 -40 -9 -82 -19 -43 -10
-78 -23 -78 -30 0 -6 -5 -4 -10 4 -7 11 -10 11 -10 2 0 -7 -4 -10 -10 -7 -5 3
-10 3 -10 -2 0 -4 -14 -9 -32 -10 -17 -1 -36 -7 -41 -12 -5 -5 -16 -7 -23 -4
-8 3 -14 0 -14 -6 0 -6 -6 -8 -14 -5 -8 3 -17 1 -20 -5 -4 -6 -14 -7 -23 -4
-11 4 -14 3 -9 -5 5 -8 2 -10 -8 -6 -9 3 -16 1 -16 -5 0 -6 -3 -10 -7 -9 -12
3 -97 -23 -109 -33 -6 -5 -14 -6 -17 -2 -4 3 -7 0 -7 -7 0 -7 -3 -10 -7 -7 -3
4 -12 2 -20 -4 -7 -6 -13 -8 -13 -4 0 4 -7 1 -16 -6 -9 -7 -21 -14 -28 -15
-29 -5 -42 -10 -60 -26 -10 -10 -22 -15 -26 -13 -4 3 -13 -2 -20 -10 -7 -8
-16 -12 -21 -9 -5 3 -12 -2 -15 -10 -3 -9 -10 -13 -15 -11 -5 3 -16 -3 -26
-14 -9 -11 -20 -18 -25 -15 -4 3 -11 -2 -14 -10 -3 -9 -11 -16 -18 -16 -6 0
-27 -15 -47 -33 -20 -18 -50 -43 -67 -57 -17 -13 -28 -28 -26 -32 3 -4 0 -8
-7 -8 -11 0 -24 -12 -89 -87 -50 -57 -106 -129 -131 -168 -67 -105 -79 -125
-79 -134 0 -5 -7 -14 -15 -21 -9 -7 -13 -15 -11 -18 3 -3 -3 -17 -14 -32 -11
-16 -20 -35 -20 -44 0 -9 -4 -16 -10 -16 -5 0 -10 -7 -10 -15 0 -8 -4 -23 -9
-33 -5 -9 -13 -28 -19 -42 -5 -14 -15 -38 -22 -55 -14 -32 -15 -35 -25 -75 -9
-36 -11 -42 -22 -70 -6 -14 -9 -28 -6 -32 2 -4 -2 -18 -8 -30 -7 -13 -14 -40
-15 -60 l-2 -38 4944 0 c4754 0 4944 1 4944 18 0 10 -5 23 -12 30 -7 7 -9 12
-5 12 4 0 1 15 -7 34 -8 19 -12 36 -10 39 3 2 -1 17 -7 33 -7 16 -13 31 -14
34 -3 12 -27 86 -32 100 -4 8 -7 17 -8 20 -1 3 -8 21 -17 40 -8 19 -14 38 -14
41 1 3 -5 13 -12 21 -7 9 -15 26 -17 38 -2 13 -12 31 -21 41 -10 11 -14 19
-10 19 4 0 -2 13 -13 29 -12 16 -21 36 -21 44 0 8 -7 17 -15 21 -8 3 -15 12
-15 21 0 8 -5 15 -11 15 -5 0 -7 5 -4 10 3 6 -1 13 -9 16 -9 3 -13 10 -10 15
3 5 -2 12 -11 15 -9 4 -14 13 -11 20 3 7 -4 16 -15 19 -10 4 -17 10 -14 15 3
5 -3 13 -12 19 -10 5 -17 12 -15 15 3 7 -1 13 -68 86 -27 30 -50 58 -50 62 0
4 -13 15 -30 25 -16 9 -30 23 -30 30 0 7 -6 13 -13 13 -7 0 -19 9 -27 20 -8
11 -20 20 -28 20 -7 0 -10 5 -7 10 3 6 0 10 -8 10 -8 0 -29 13 -46 29 -18 17
-41 33 -52 36 -10 4 -19 11 -19 16 0 6 -4 7 -10 4 -5 -3 -10 -2 -10 3 0 5 -13
15 -30 22 -16 7 -30 17 -30 22 0 5 -4 6 -10 3 -5 -3 -10 -1 -10 5 0 6 -4 9 -9
6 -5 -4 -11 -1 -13 4 -2 6 -13 12 -26 13 -12 0 -22 4 -22 8 0 8 -60 33 -72 30
-5 0 -8 3 -8 9 0 6 -3 9 -7 8 -5 -1 -25 6 -47 15 -21 9 -42 14 -47 11 -5 -3
-9 -1 -9 4 0 5 -8 12 -17 16 -10 3 -24 9 -32 12 -9 5 -11 3 -6 -6 4 -7 -3 -5
-17 4 -14 9 -28 13 -31 9 -4 -3 -7 -1 -7 6 0 7 -4 10 -9 6 -5 -3 -13 0 -16 6
-4 5 -13 8 -21 5 -8 -3 -14 -1 -14 4 0 6 -7 10 -15 10 -14 0 -150 35 -185 48
-8 3 -22 6 -32 7 -9 1 -25 6 -35 10 -10 4 -29 10 -43 12 -14 2 -37 8 -52 14
-15 6 -32 8 -37 4 -6 -3 -11 -1 -11 5 0 6 -4 9 -9 5 -5 -3 -12 -1 -16 4 -3 5
-13 10 -23 10 -28 -1 -106 24 -114 35 -5 7 -8 6 -8 -4 0 -11 -2 -12 -8 -3 -4
7 -22 13 -40 15 -18 1 -32 5 -32 8 0 4 -6 7 -12 8 -13 1 -48 9 -58 12 -3 1 -8
2 -12 1 -5 0 -8 3 -8 9 0 5 -7 7 -15 4 -8 -4 -21 -1 -29 5 -7 6 -16 8 -19 4
-4 -3 -7 -2 -7 4 0 5 -10 9 -22 8 -13 -1 -25 1 -28 4 -7 8 -140 54 -157 54 -7
0 -13 4 -13 8 0 3 -10 9 -22 12 -40 8 -123 42 -130 52 -4 6 -8 6 -8 1 0 -5 -7
-3 -15 4 -8 7 -15 10 -15 6 0 -4 -11 1 -25 10 -14 9 -25 13 -25 9 0 -3 -7 1
-16 9 -8 9 -20 14 -25 11 -5 -4 -9 -1 -9 4 0 6 -3 10 -7 9 -13 -3 -113 44
-113 53 0 5 -3 8 -7 7 -14 -4 -83 26 -83 35 0 4 -4 6 -9 2 -5 -3 -16 2 -25 10
-8 9 -17 15 -18 14 -8 -3 -58 25 -58 33 0 5 -4 6 -10 3 -5 -3 -10 -1 -10 4 0
6 -3 10 -7 9 -10 -3 -121 61 -129 73 -3 5 -10 7 -15 4 -5 -4 -9 -2 -9 3 0 11
-71 57 -83 54 -5 -2 -6 1 -3 6 2 4 -6 16 -19 26 -13 10 -21 24 -18 32 3 8 0
14 -7 14 -6 0 -8 5 -5 10 3 6 2 10 -4 10 -5 0 -8 9 -6 19 2 11 -3 22 -12 25
-9 4 -13 9 -10 13 4 3 2 12 -4 20 -6 7 -8 13 -4 13 4 0 0 11 -9 25 -9 13 -16
33 -16 45 0 11 -4 20 -10 20 -5 0 -10 11 -10 25 0 14 -5 25 -11 25 -5 0 -8 4
-4 9 3 5 1 12 -5 16 -6 4 -8 11 -5 16 4 5 1 9 -5 9 -7 0 -10 6 -7 14 3 7 0 22
-7 32 -7 11 -16 31 -20 46 -3 15 -11 40 -18 55 -6 15 -12 34 -14 42 -1 8 -6
17 -11 20 -7 5 -12 23 -15 59 -1 6 -4 12 -7 12 -4 0 -13 20 -20 45 -7 25 -16
43 -20 40 -4 -2 -8 2 -8 9 0 24 -43 106 -55 106 -6 0 -9 3 -5 6 3 4 1 12 -6
20 -30 33 -37 44 -37 55 0 7 -3 10 -6 6 -6 -6 -98 81 -100 96 -1 4 -2 8 -4 10
-1 1 -3 17 -5 35 -2 19 -6 40 -9 47 -2 7 -2 16 2 19 3 4 5 29 3 56 -1 31 2 50
8 50 6 0 10 3 9 8 -1 4 4 18 11 31 10 19 15 21 22 10 6 -10 9 -8 9 10 0 16 4
21 14 18 10 -4 13 0 11 14 -3 15 0 19 10 15 8 -3 17 0 21 6 4 7 3 8 -4 4 -7
-4 -12 -2 -12 5 0 7 8 9 21 6 12 -3 18 -3 15 0 -9 9 14 44 25 37 6 -3 9 2 7
12 -2 11 3 19 11 19 8 0 19 15 25 33 6 18 14 30 18 27 4 -4 4 -13 1 -21 -3 -8
0 -14 7 -14 6 0 8 5 5 10 -3 5 -1 10 5 10 6 0 9 4 6 8 -3 5 3 18 12 28 10 10
27 35 40 54 12 19 22 30 22 25 0 -6 -5 -16 -12 -23 -9 -9 -9 -12 -1 -12 11 0
29 37 25 53 -1 4 4 7 11 7 14 0 67 56 67 71 0 6 9 19 20 31 11 12 20 28 20 35
0 7 4 13 10 13 5 0 9 3 8 8 -1 4 8 29 21 55 16 36 27 48 40 44 11 -3 17 2 17
14 0 10 -3 16 -7 13 -4 -2 -9 2 -12 10 -4 10 1 12 16 9 18 -4 19 -3 7 6 -14
10 -7 16 14 12 5 -1 3 6 -5 15 -12 16 -12 17 3 11 10 -3 20 -1 24 5 4 6 3 8
-4 4 -22 -13 -22 15 0 99 15 55 27 84 35 81 6 -3 17 1 23 9 10 12 8 13 -10 10
-19 -4 -21 -1 -15 27 4 17 8 36 9 42 2 6 7 29 12 51 l8 40 7 -35 6 -35 3 45
c1 25 3 62 4 82 2 47 6 51 64 54 26 2 56 5 67 8 11 2 26 5 33 5 7 1 11 5 8 10
-4 5 2 8 11 7 22 -4 102 38 137 71 14 12 30 23 36 23 5 0 9 3 7 8 -1 4 7 16
18 28 31 32 73 88 73 97 1 5 7 14 15 20 20 16 97 163 90 171 -3 3 1 8 10 12 9
3 13 12 11 19 -3 7 -1 16 5 20 6 3 11 15 11 26 0 10 5 19 11 19 5 0 8 4 5 8
-2 4 4 27 14 50 11 23 17 42 14 42 -3 0 0 9 6 20 8 15 8 20 -2 20 -10 0 -9 3
1 9 8 5 16 22 19 38 2 15 9 31 15 35 9 6 9 8 0 8 -9 0 -9 10 2 40 8 24 10 40
4 40 -6 0 -6 7 1 20 6 11 9 20 6 20 -2 0 0 16 4 35 5 24 4 35 -4 35 -7 0 -8 3
0 8 8 6 13 227 4 227 -1 0 -2 19 -3 43 0 23 -5 42 -10 42 -5 0 -4 7 3 15 7 8
8 15 3 15 -5 0 -10 6 -11 13 -3 48 -42 150 -62 162 -6 4 -8 10 -5 15 3 5 -4
11 -15 15 -11 3 -20 12 -20 18 0 13 -89 64 -102 60 -4 -2 -8 2 -8 7 0 6 -9 10
-21 10 -11 0 -17 5 -14 10 3 6 0 10 -7 10 -9 0 -9 3 2 10 11 7 11 10 2 10 -10
0 -10 5 -2 20 8 14 8 20 0 20 -7 0 -8 5 -3 13 4 6 8 23 9 37 3 73 10 106 24
118 8 7 10 11 5 10 -11 -3 -15 4 -15 28 0 8 4 12 10 9 7 -4 7 3 0 20 -5 14 -6
24 -1 21 5 -3 12 10 15 29 5 24 11 33 19 28 8 -4 8 -2 -1 9 -8 10 -9 19 -3 22
5 4 14 -2 20 -11 6 -10 11 -13 11 -6 0 6 -10 19 -22 27 -12 9 -18 16 -12 16 5
0 11 12 12 28 3 35 10 74 15 79 3 2 7 -5 10 -17 3 -11 2 -20 -1 -20 -8 0 -9
-76 -1 -84 2 -3 5 3 6 12 1 9 4 37 7 61 4 28 2 49 -6 59 -10 13 -10 14 0 8 14
-9 14 -13 17 97 1 48 5 90 9 94 3 3 6 -1 6 -10 0 -9 4 -18 10 -22 5 -3 8 7 7
25 -1 20 -6 29 -15 25 -8 -3 -10 0 -5 8 8 14 5 69 -6 77 -9 7 -8 80 1 74 13
-8 9 11 -4 25 -10 11 -10 13 0 7 6 -4 12 -2 12 4 0 6 3 9 8 7 4 -3 8 6 9 19 1
13 3 36 4 50 1 14 8 28 15 31 8 3 11 9 8 14 -3 6 0 17 8 26 11 14 11 16 -1 8
-11 -6 -12 -5 -5 6 9 14 14 34 16 57 1 6 5 12 10 12 4 0 7 5 5 11 -4 20 18 20
31 -1 8 -13 8 -20 2 -20 -7 0 -7 -6 -1 -19 6 -10 8 -21 5 -23 -2 -3 2 -11 11
-18 13 -11 14 -10 9 5 -6 14 -4 16 6 10 9 -6 11 -4 5 5 -5 7 -9 37 -9 66 -1
29 -4 56 -8 59 -4 4 -3 18 2 31 6 14 6 26 -1 29 -5 4 -6 13 0 22 5 9 5 29 1
44 -5 17 -4 31 3 38 7 7 7 11 1 11 -6 0 -11 6 -12 13 -6 79 -11 102 -23 99 -8
-2 -6 5 6 18 18 20 18 21 0 14 -13 -5 -16 -4 -11 5 4 7 0 28 -9 48 -10 19 -18
41 -19 47 -1 6 -5 17 -9 24 -5 6 -5 12 0 12 4 0 2 4 -5 9 -7 4 -14 18 -15 29
-1 12 -6 22 -11 22 -5 0 -6 3 -3 7 4 3 0 15 -10 25 -10 11 -12 18 -4 18 9 0 8
4 -1 14 -7 8 -16 12 -20 9 -4 -2 -5 3 -2 11 3 9 1 16 -6 16 -6 0 -8 5 -5 10 3
6 1 10 -5 10 -6 0 -8 5 -5 10 3 6 1 10 -5 10 -6 0 -9 4 -6 9 3 5 -1 11 -9 15
-8 3 -15 10 -15 17 0 6 7 9 15 5 18 -6 48 21 38 37 -4 6 0 8 10 4 29 -11 19 2
-14 19 -30 15 -31 15 -25 -1 4 -12 2 -16 -8 -12 -7 3 -19 0 -25 -6 -6 -6 -11
-8 -11 -3 0 4 7 14 15 22 8 9 15 21 15 27 0 7 -4 6 -10 -3 -8 -13 -11 -13 -22
-1 -7 8 -8 12 -3 9 6 -3 21 5 35 19 l25 24 -29 -11 c-35 -13 -39 -10 -27 21 9
21 10 22 11 4 1 -11 4 -14 7 -7 2 6 11 12 19 12 8 0 14 5 14 11 0 5 -4 8 -9 5
-5 -3 -12 1 -15 10 -3 8 -2 12 3 9 5 -3 12 -1 16 5 10 16 -17 12 -37 -7 -12
-10 -18 -12 -18 -4 0 7 -4 10 -8 7 -4 -2 -9 9 -10 26 -2 17 3 35 10 40 8 5 9
8 2 8 -7 0 -10 13 -9 30 2 20 -2 30 -11 30 -8 0 -14 7 -14 15 0 8 -5 15 -11
15 -5 0 -7 5 -4 10 3 6 -2 10 -11 10 -10 0 -15 3 -11 6 7 8 -17 34 -32 34 -6
0 -11 4 -11 9 0 4 18 6 41 4 32 -3 39 -1 33 9 -6 11 -5 11 8 0 12 -9 18 -10
23 -2 5 8 11 8 20 0 9 -7 16 -6 24 4 6 7 24 16 39 19 15 3 36 13 47 22 20 16
20 16 -1 6 -16 -8 -21 -7 -21 4 0 8 4 12 8 9 4 -2 10 2 13 8 3 9 9 7 20 -6 9
-11 16 -15 16 -9 0 7 -5 15 -11 18 -7 5 -5 15 6 31 8 13 14 24 13 25 -20 6
-57 4 -71 -3 -18 -9 -18 -8 0 19 9 15 22 31 27 34 5 4 6 14 3 23 -4 9 -2 16 4
16 6 0 6 6 1 18 -5 9 -7 23 -4 31 3 8 0 11 -6 7 -6 -4 -9 -25 -7 -49 3 -29 2
-37 -5 -27 -8 13 -14 8 -12 -11 0 -3 -8 -11 -19 -17 -19 -12 -19 -12 -4 11 8
13 12 27 8 32 -5 4 -3 5 4 1 14 -8 28 10 14 19 -5 3 -8 14 -6 25 2 12 0 18 -6
15 -5 -4 -7 -10 -5 -14 3 -4 1 -13 -5 -21 -7 -13 -9 -12 -9 3 0 9 -5 17 -11
17 -5 0 -8 -4 -5 -9 11 -17 -5 -40 -25 -36 -12 2 -25 -5 -35 -19 -10 -16 -21
-22 -34 -19 -13 3 -20 0 -20 -8 0 -11 -2 -11 -10 1 -5 8 -10 11 -10 5 0 -5
-16 -11 -35 -12 -25 -1 -33 2 -28 10 4 8 1 7 -9 -1 -14 -11 -16 -11 -14 4 2
10 8 20 14 22 7 2 12 8 12 13 0 4 -8 5 -17 2 -16 -6 -16 -5 -3 11 13 16 12 18
-5 16 -34 -4 -46 0 -40 10 5 9 -24 15 -48 11 -5 -1 -6 3 -2 9 3 5 1 10 -5 10
-6 0 -8 4 -5 10 3 5 0 7 -8 4 -8 -3 -17 2 -20 10 -4 9 -14 16 -22 16 -9 0 -13
5 -10 10 3 6 0 10 -7 10 -7 0 -23 16 -36 36 -13 20 -26 34 -28 31 -3 -2 -21
11 -40 30 -19 18 -39 31 -44 28 -6 -4 -10 0 -10 8 0 14 -27 32 -42 29 -5 -1
-8 2 -8 8 0 5 -7 10 -15 10 -8 0 -15 5 -15 10 0 6 -7 10 -16 10 -8 0 -22 7
-31 15 -8 8 -19 13 -24 10 -5 -4 -9 -1 -9 5 0 6 -4 9 -9 6 -5 -3 -11 0 -14 8
-3 7 -14 16 -25 18 -16 4 -19 2 -16 -11 3 -9 -1 -5 -10 9 -8 14 -20 26 -28 26
-7 1 -20 2 -28 3 -13 1 -13 3 -1 10 12 8 12 12 -2 26 -10 9 -17 12 -17 6 0 -6
-3 -11 -7 -11 -13 0 -68 51 -66 61 2 4 -4 6 -11 3 -9 -3 -17 3 -21 15 -3 12
-13 21 -21 21 -8 0 -14 5 -14 11 0 5 6 7 13 3 8 -5 8 -2 -2 9 -15 19 -36 23
-25 5 4 -7 -7 -2 -24 11 -18 12 -32 30 -31 39 0 13 2 12 9 -4 8 -21 34 -37 43
-27 7 7 -98 113 -112 113 -6 0 -11 5 -11 10 0 6 -7 10 -15 10 -8 0 -15 6 -15
13 0 8 -4 7 -10 -3 -8 -13 -10 -13 -10 2 0 9 -5 20 -12 24 -7 5 -8 3 -3 -7 8
-12 6 -12 -8 -1 -9 8 -21 11 -26 7 -7 -3 -8 0 -5 9 4 11 0 16 -10 16 -9 0 -17
-1 -18 -2 -2 -1 -15 9 -31 22 -20 18 -24 26 -15 32 10 7 9 8 -2 7 -30 -3 -39
1 -45 22 -4 11 -9 18 -13 15 -3 -3 -20 5 -38 19 -18 14 -37 25 -42 25 -5 0
-15 7 -22 15 -7 8 -16 12 -21 9 -5 -3 -9 -1 -9 4 0 6 -11 13 -25 16 -14 4 -23
11 -20 15 3 5 -2 8 -12 7 -9 -2 -34 6 -57 17 -22 11 -47 21 -55 22 -9 1 -15 8
-13 16 2 9 -1 9 -10 2 -16 -12 -142 19 -131 32 4 5 1 4 -8 -3 -9 -6 -18 -10
-20 -8 -6 6 -67 16 -124 21 -27 3 -61 6 -75 8 -14 2 -33 -1 -44 -6 -13 -7 -16
-6 -11 3 6 9 3 9 -13 1 -12 -6 -23 -7 -26 -3 -6 10 -42 9 -52 -1 -4 -4 -13 -2
-20 4 -8 7 -14 7 -19 -1 -9 -14 -28 -13 -23 2 2 6 20 14 39 16 35 4 62 19 34
19 -8 0 -16 -1 -17 -3z m-68 -35 c0 -5 -17 -11 -37 -14 -21 -4 -48 -10 -60
-15 -15 -6 -23 -6 -23 0 0 9 24 18 63 24 9 1 19 4 22 7 8 9 35 7 35 -2z m290
-33 c115 -11 118 -24 5 -19 -60 2 -118 6 -127 8 -10 2 -18 -1 -18 -5 0 -5 25
-12 55 -15 30 -4 55 -10 55 -14 0 -10 -63 -7 -79 3 -10 7 -12 6 -6 -4 6 -9 -3
-11 -39 -9 -26 3 -46 0 -47 -6 0 -5 -3 -4 -6 4 -5 11 -7 11 -15 0 -7 -11 -11
-11 -15 -1 -2 6 -10 9 -16 5 -21 -13 -72 -9 -91 6 -11 9 -16 11 -13 4 5 -8 -9
-11 -49 -11 -37 1 -52 4 -45 11 6 6 20 11 33 12 13 1 30 5 38 8 29 12 86 19
185 24 55 2 105 5 110 7 6 2 15 2 20 0 6 -2 35 -5 65 -8z m330 -66 c11 -8 7
-9 -15 -4 -37 8 -45 14 -19 14 10 0 26 -5 34 -10z m118 -50 c28 -17 52 -32 52
-35 0 -4 -111 52 -119 61 -14 13 21 0 67 -26z m91 -74 c-3 -3 -11 5 -18 17
-13 21 -12 21 5 5 10 -10 16 -20 13 -22z m977 -697 c3 -6 -5 -3 -20 6 -14 10
-26 19 -26 22 0 7 39 -17 46 -28z m434 -189 c0 -5 -5 -10 -11 -10 -5 0 -7 5
-4 10 3 6 8 10 11 10 2 0 4 -4 4 -10z m140 -74 c0 -2 -8 -10 -17 -17 -16 -13
-17 -12 -4 4 13 16 21 21 21 13z m-4653 -169 c0 -8 -6 -14 -14 -14 -14 0 -17
10 -6 20 10 11 20 8 20 -6z m-247 -185 c0 -5 -7 -17 -15 -28 -15 -19 -15 -19
-9 1 6 20 5 20 -10 1 -9 -11 -16 -14 -16 -7 0 7 -5 9 -12 5 -10 -6 -10 -4 0 8
7 9 22 15 33 13 10 -2 19 0 19 6 0 5 2 9 5 9 3 0 5 -4 5 -8z m-86 -37 c-4 -8
-11 -12 -16 -9 -6 4 -5 10 3 15 19 12 19 11 13 -6z m6 -29 c0 -2 -7 -7 -16
-10 -8 -3 -12 -2 -9 4 6 10 25 14 25 6z m-73 -41 c0 -9 -11 -18 -24 -21 -12
-4 -23 -10 -23 -15 0 -5 -5 -9 -11 -9 -8 0 -8 5 1 15 7 8 18 15 25 15 7 0 15
7 19 15 7 19 13 19 13 0z m-73 -61 c3 -8 2 -12 -4 -9 -6 3 -10 10 -10 16 0 14
7 11 14 -7z m-20 -20 c3 -8 2 -12 -4 -9 -6 3 -10 1 -10 -5 0 -6 -4 -8 -10 -5
-6 4 -5 11 3 20 15 18 14 18 21 -1z m5076 12 c0 -2 -6 -9 -14 -15 -11 -9 -16
-9 -22 0 -4 8 -3 9 4 5 7 -4 12 -2 12 3 0 6 5 11 10 11 6 0 10 -2 10 -4z
m-5123 -60 c-9 -7 -17 -17 -17 -22 0 -5 -10 -15 -22 -23 l-21 -13 19 24 c32
40 49 56 54 51 3 -2 -3 -10 -13 -17z m5243 -700 c0 -2 -7 -6 -15 -10 -8 -3
-15 -1 -15 4 0 6 7 10 15 10 8 0 15 -2 15 -4z m-5431 -366 c11 -24 11 -24 -3
-6 -9 11 -16 24 -16 30 0 12 5 7 19 -24z m4486 -3291 c-9 -17 -18 -29 -21 -27
-6 6 20 58 29 58 4 0 0 -14 -8 -31z"/>
<path d="M5378 9863 c7 -3 16 -2 19 1 4 3 -2 6 -13 5 -11 0 -14 -3 -6 -6z"/>
<path d="M4975 9880 c3 -5 8 -10 11 -10 2 0 4 5 4 10 0 6 -5 10 -11 10 -5 0
-7 -4 -4 -10z"/>
<path d="M2936 9307 c3 -10 9 -15 12 -12 3 3 0 11 -7 18 -10 9 -11 8 -5 -6z"/>
<path d="M3016 9304 c-9 -8 -16 -18 -16 -21 0 -4 3 -3 7 0 3 4 13 1 22 -6 14
-10 14 -10 4 4 -10 12 -10 18 -1 27 7 7 9 12 6 12 -4 0 -14 -7 -22 -16z"/>
<path d="M2993 9254 c-3 -8 -1 -20 5 -26 8 -8 9 -4 5 12 -4 16 -3 21 5 16 7
-4 12 -2 12 3 0 17 -20 13 -27 -5z"/>
<path d="M2987 9203 c3 -8 0 -18 -6 -23 -9 -5 -8 -9 5 -14 10 -4 15 -4 12 0
-4 4 -3 15 2 24 7 13 6 20 -5 23 -9 4 -12 1 -8 -10z"/>
<path d="M2972 9150 c2 -8 8 -19 13 -23 6 -6 6 -10 -2 -14 -7 -2 -13 -9 -13
-15 0 -6 6 -6 15 2 19 16 19 21 0 46 -11 13 -14 14 -13 4z"/>
<path d="M2816 9087 c3 -10 9 -15 12 -12 3 3 0 11 -7 18 -10 9 -11 8 -5 -6z"/>
<path d="M2980 9080 c-9 -6 -10 -10 -3 -10 6 0 15 5 18 10 8 12 4 12 -15 0z"/>
<path d="M2973 9044 c0 -7 5 -15 12 -17 6 -3 11 3 11 12 0 10 -5 18 -11 18 -7
0 -12 -6 -12 -13z"/>
<path d="M2965 8999 c10 -10 22 -16 27 -13 12 8 -6 27 -28 30 -14 2 -14 0 1
-17z"/>
<path d="M2815 8940 c3 -5 8 -10 11 -10 2 0 4 5 4 10 0 6 -5 10 -11 10 -5 0
-7 -4 -4 -10z"/>
<path d="M2829 8913 c-13 -16 -12 -17 4 -4 9 7 17 15 17 17 0 8 -8 3 -21 -13z"/>
<path d="M2827 8878 c6 -7 9 -23 8 -36 -1 -13 1 -25 5 -27 4 -2 6 10 5 28 -4
47 -4 47 -16 47 -8 0 -8 -4 -2 -12z"/>
<path d="M2693 8475 c0 -8 4 -12 9 -9 5 3 6 10 3 15 -9 13 -12 11 -12 -6z"/>
<path d="M7505 8441 c2 -11 -3 -24 -11 -29 -9 -5 -12 -15 -8 -25 6 -17 25 -24
23 -9 -4 25 2 42 14 36 6 -4 9 -4 5 1 -4 4 -2 15 4 24 7 9 8 13 4 9 -5 -4 -15
-3 -22 3 -10 8 -12 6 -9 -10z"/>
<path d="M2570 8439 c0 -6 -6 -9 -12 -6 -7 2 -30 -7 -50 -20 -21 -12 -42 -23
-48 -23 -6 0 -13 -7 -17 -16 -3 -8 -12 -13 -20 -10 -8 3 -12 2 -9 -2 2 -4 -7
-16 -22 -26 -31 -21 -122 -129 -122 -145 0 -5 -8 -15 -17 -20 -10 -6 -14 -11
-9 -11 5 0 -1 -11 -14 -25 -13 -14 -20 -25 -16 -25 4 0 -2 -13 -14 -30 -12
-16 -19 -30 -15 -30 3 0 -2 -11 -11 -25 -9 -14 -14 -25 -10 -25 3 0 -3 -14
-13 -31 -11 -18 -17 -38 -14 -45 3 -8 0 -14 -5 -14 -6 0 -11 -8 -11 -17 -1
-39 -5 -53 -13 -53 -5 0 -7 -4 -3 -10 3 -5 -1 -26 -10 -46 -13 -32 -13 -35 0
-24 8 7 15 20 15 29 0 9 5 22 12 29 7 7 9 12 5 12 -4 0 2 23 13 52 10 28 17
55 14 60 -3 4 0 8 5 8 6 0 11 7 11 15 0 8 5 15 11 15 5 0 8 4 4 9 -3 5 5 27
17 48 27 48 27 47 33 41 3 -3 -4 -22 -15 -41 -12 -20 -19 -41 -15 -47 3 -5 1
-10 -5 -10 -12 0 -41 -61 -34 -72 3 -5 1 -8 -4 -8 -5 0 -9 -6 -10 -12 -1 -7
-4 -26 -7 -43 -3 -16 -7 -36 -7 -42 -1 -7 -5 -13 -9 -13 -5 0 -6 -6 -3 -14 3
-8 1 -17 -5 -20 -6 -4 -7 -14 -4 -24 6 -15 5 -15 -10 -3 -14 11 -18 11 -24 -4
-3 -10 -7 -27 -7 -39 -1 -12 -5 -26 -9 -33 -4 -6 -3 -15 3 -18 6 -4 10 -3 9 2
-1 4 0 10 1 13 1 3 3 20 5 38 5 44 12 51 24 21 5 -14 5 -31 -1 -42 -5 -9 -6
-22 -3 -27 3 -6 3 -10 -2 -10 -4 0 -8 -20 -8 -45 0 -42 14 -66 16 -27 3 47 6
70 13 80 4 7 2 12 -6 12 -9 0 -9 3 -2 8 6 4 10 17 9 30 -1 12 2 22 6 22 4 0 5
9 2 20 -3 11 -1 20 4 20 8 0 14 27 17 78 0 12 5 22 10 22 4 0 6 7 2 15 -3 8
-1 15 5 15 6 0 8 4 5 8 -3 5 1 20 9 35 7 14 11 28 9 30 -3 2 2 10 11 17 8 7
15 21 15 32 0 10 4 17 9 14 5 -4 8 2 7 11 -2 10 2 21 8 25 8 5 8 12 0 25 -9
14 -5 27 23 68 67 100 151 195 172 195 6 0 11 4 11 8 0 5 12 15 28 23 15 8 33
20 41 27 11 10 16 10 30 0 14 -12 15 -11 2 5 -12 15 -11 17 8 17 12 0 21 6 21
15 0 8 -2 15 -5 15 -3 0 -5 -5 -5 -11z"/>
<path d="M2590 8441 c0 -10 26 -9 36 2 4 4 -2 7 -14 7 -12 0 -22 -4 -22 -9z"/>
<path d="M2067 7613 c-10 -9 -9 -23 1 -23 5 0 9 7 9 15 0 17 -1 18 -10 8z"/>
<path d="M2069 7578 c-4 -10 -5 -87 -1 -83 6 5 11 85 5 85 -2 0 -3 -1 -4 -2z"/>
<path d="M2093 7513 c0 -7 4 -13 8 -13 4 0 9 6 12 13 3 8 0 14 -7 14 -7 0 -13
-6 -13 -14z"/>
<path d="M7756 7502 c-2 -4 -1 -14 4 -22 7 -11 9 -9 7 8 -1 24 -3 26 -11 14z"/>
<path d="M2062 7471 c-11 -6 -10 -10 4 -15 9 -3 19 -4 22 -1 3 3 -1 5 -9 5
-11 0 -11 2 1 10 8 5 11 10 5 10 -5 0 -16 -4 -23 -9z"/>
<path d="M2050 7436 c0 -2 7 -7 16 -10 8 -3 12 -2 9 4 -6 10 -25 14 -25 6z"/>
<path d="M2070 7339 c0 -5 5 -7 10 -4 6 3 10 8 10 11 0 2 -4 4 -10 4 -5 0 -10
-5 -10 -11z"/>
<path d="M7598 6902 c7 -5 14 -23 14 -41 1 -18 4 -27 8 -20 11 16 -3 62 -21
67 -11 3 -11 2 -1 -6z"/>
<path d="M2217 6894 c7 -3 9 -13 6 -22 -4 -14 -3 -14 5 -2 12 16 7 30 -11 29
-9 0 -9 -2 0 -5z"/>
<path d="M2220 6839 c0 -5 5 -7 10 -4 6 3 10 8 10 11 0 2 -4 4 -10 4 -5 0 -10
-5 -10 -11z"/>
<path d="M6979 4250 c-1 -11 -2 -26 -3 -32 -1 -7 -5 -17 -11 -21 -6 -5 -4 -7
4 -5 8 2 16 11 17 19 2 7 5 24 8 37 3 12 1 22 -5 22 -5 0 -10 -9 -10 -20z"/>
<path d="M6957 4173 c-10 -10 -8 -23 4 -23 5 0 8 4 5 9 -4 5 0 12 6 14 7 3 8
6 2 6 -6 1 -14 -2 -17 -6z"/>
<path d="M3290 4060 c0 -5 5 -10 11 -10 5 0 7 5 4 10 -3 6 -8 10 -11 10 -2 0
-4 -4 -4 -10z"/>
<path d="M6880 3981 c-12 -24 -13 -31 -1 -31 5 0 11 11 13 25 6 30 2 32 -12 6z"/>
</g>
</svg>
